<?xml version="1.0" standalone="no"?>
<!DOCTYPE svg PUBLIC "-//W3C//DTD SVG 20010904//EN"
 "http://www.w3.org/TR/2001/REC-SVG-20010904/DTD/svg10.dtd">
<svg version="1.0" xmlns="http://www.w3.org/2000/svg"
 width="574.000000pt" height="574.000000pt" viewBox="0 0 574.000000 574.000000"
 preserveAspectRatio="xMidYMid meet">
<metadata>
Created by potrace 1.14, written by Peter Selinger 2001-2017
</metadata>
<g transform="translate(0.000000,574.000000) scale(0.100000,-0.100000)"
fill="#000000" stroke="none">
<path d="M3016 4303 c-2 -10 -161 -670 -351 -1468 -190 -797 -348 -1456 -350
-1463 -4 -10 37 -12 197 -10 l201 3 353 1460 c195 803 355 1468 358 1478 4 16
-11 17 -199 17 -185 0 -204 -2 -209 -17z"/>
<path d="M1142 3487 l-972 -422 2 -238 3 -238 955 -415 c525 -229 965 -420
978 -425 l22 -9 0 273 0 273 -680 270 c-374 148 -680 272 -680 275 0 3 305
122 678 265 l677 259 3 278 c1 152 -1 277 -5 276 -5 0 -446 -190 -981 -422z"/>
<path d="M3610 3632 l0 -268 678 -263 c372 -145 680 -266 684 -270 4 -3 -295
-125 -665 -270 -370 -145 -678 -268 -684 -274 -10 -7 -13 -75 -13 -279 0 -253
1 -270 18 -265 14 4 1716 744 1895 824 l57 26 0 231 0 231 -977 423 c-538 232
-981 422 -985 422 -5 0 -8 -121 -8 -268z"/>
</g>
</svg>
