<?xml version="1.0" standalone="no"?>
<!DOCTYPE svg PUBLIC "-//W3C//DTD SVG 20010904//EN"
 "http://www.w3.org/TR/2001/REC-SVG-20010904/DTD/svg10.dtd">
<svg version="1.0" xmlns="http://www.w3.org/2000/svg"
 width="390.000000pt" height="390.000000pt" viewBox="0 0 390.000000 390.000000"
 preserveAspectRatio="xMidYMid meet">
<metadata>
Created by potrace 1.14, written by Peter Selinger 2001-2017
</metadata>
<g transform="translate(0.000000,390.000000) scale(0.100000,-0.100000)"
fill="#000000" stroke="none">
<path d="M1697 3699 c-332 -45 -703 -209 -943 -416 -159 -137 -196 -190 -256
-364 -28 -82 -32 -107 -32 -199 0 -85 5 -121 26 -190 47 -149 68 -247 68 -308
0 -70 -31 -181 -66 -234 -29 -45 -29 -49 -4 -117 32 -82 29 -193 -6 -271 -29
-66 -85 -123 -143 -147 -48 -21 -156 -20 -205 1 -22 9 -40 15 -41 14 -2 -2 12
-61 30 -133 73 -293 224 -578 417 -789 l63 -68 408 -2 408 -2 -8 61 c-10 73
-10 317 -1 366 6 34 4 37 -31 52 -53 24 -65 22 -149 -24 -66 -36 -79 -40 -119
-34 -41 6 -47 4 -84 -29 -21 -20 -45 -36 -52 -36 -39 -1 -37 -17 8 -96 91
-160 51 -189 -162 -120 -62 20 -126 36 -143 36 -43 0 -64 26 -94 116 -43 131
-84 301 -76 314 9 15 87 25 133 16 19 -4 51 -17 70 -30 l35 -24 32 23 c21 15
52 25 96 30 49 5 67 11 75 26 5 11 36 50 68 87 l58 68 -49 74 c-27 41 -54 95
-61 118 -10 38 -24 53 -97 110 -138 109 -230 200 -230 231 0 48 33 86 86 101
73 20 124 41 124 52 0 5 15 33 34 62 65 102 153 124 370 91 132 -20 136 -20
136 8 0 29 18 47 47 47 15 0 28 10 38 31 26 49 162 97 290 100 l50 1 -40 9
c-22 4 -98 15 -168 24 -162 21 -210 37 -245 83 -26 34 -27 40 -30 179 -4 156
10 273 55 468 27 117 48 169 81 198 39 35 167 49 463 51 l275 1 49 -30 c27
-17 100 -86 162 -153 120 -132 143 -176 143 -274 0 -33 14 -70 59 -159 33 -64
63 -134 67 -155 4 -22 15 -50 25 -63 11 -13 19 -38 19 -55 0 -23 9 -41 30 -61
32 -31 43 -60 12 -32 -22 20 -31 21 -28 4 2 -15 36 -65 36 -53 0 5 -7 18 -17
28 -9 10 -11 18 -5 18 6 0 14 -5 17 -10 4 -6 10 -8 15 -5 13 8 30 -29 30 -67
0 -30 -41 -108 -57 -108 -3 0 1 8 8 18 13 15 12 16 -3 4 -9 -8 -15 -19 -12
-27 3 -7 -27 -39 -73 -76 -43 -35 -81 -68 -85 -74 -21 -29 -6 -82 51 -185 76
-136 101 -198 108 -276 7 -76 -20 -175 -69 -249 -28 -43 -33 -59 -33 -117 -1
-67 -20 -110 -75 -173 -15 -17 -33 -88 -30 -120 0 -5 2 -40 3 -77 2 -55 6 -71
27 -93 50 -54 110 -71 110 -32 1 62 74 153 157 192 19 9 36 22 39 29 2 6 -2
48 -11 91 -28 150 -17 222 43 278 32 31 98 58 119 50 39 -15 20 -94 -33 -144
-18 -17 -24 -33 -24 -67 0 -44 0 -45 20 -27 40 37 69 -15 42 -77 -13 -30 -15
-31 -22 -13 -14 34 -11 0 6 -67 30 -116 4 -225 -74 -305 -63 -65 -182 -124
-182 -91 0 8 20 19 45 27 63 19 132 83 167 156 25 54 28 70 27 151 -1 70 -8
111 -30 179 -30 92 -37 145 -18 145 5 0 25 12 44 27 32 26 33 28 17 46 -14 16
-14 19 -2 27 12 8 11 10 -6 10 -12 0 -28 -8 -35 -17 -8 -9 -9 -14 -4 -11 6 4
16 -1 22 -11 10 -15 8 -23 -11 -40 -22 -20 -25 -21 -40 -6 -20 21 -20 25 2 42
15 13 15 13 -4 4 -54 -26 -69 -139 -34 -270 10 -41 17 -78 14 -83 -3 -5 -34
-27 -70 -49 -35 -22 -72 -53 -82 -67 -22 -31 -56 -132 -48 -140 3 -3 6 2 6 12
0 9 5 14 10 11 6 -3 10 5 10 19 0 26 40 66 94 92 l31 15 -37 -33 c-45 -40 -88
-104 -88 -129 0 -21 -26 -26 -33 -6 -4 10 -6 10 -6 0 -2 -34 -90 -1 -145 54
-37 37 -45 52 -40 68 4 11 8 60 9 108 0 57 -2 80 -8 65 -8 -21 -8 -21 -27 10
-27 43 -25 51 10 59 38 7 86 60 99 110 6 21 11 61 11 89 0 41 5 55 25 74 38
36 79 168 79 260 0 72 -2 80 -65 210 -36 74 -85 167 -109 205 -23 39 -44 73
-46 76 -2 4 20 19 49 33 55 27 117 78 117 96 0 6 10 15 23 20 12 5 17 9 10 9
-7 1 -5 16 7 49 18 47 32 152 21 152 -14 0 -42 67 -35 85 5 13 0 24 -20 40
-24 19 -28 31 -30 76 -2 45 -11 71 -59 155 -51 90 -57 107 -57 158 0 54 -3 62
-54 129 -30 40 -99 116 -154 169 -77 75 -109 99 -143 109 -49 13 -458 6 -585
-11 -98 -13 -119 -24 -143 -80 -52 -121 -111 -668 -79 -730 21 -41 92 -68 248
-94 414 -70 410 -69 622 -63 209 7 292 21 329 58 16 16 26 18 52 11 31 -8 32
-10 29 -57 -1 -26 -14 -74 -28 -106 l-27 -59 -47 0 c-26 0 -64 7 -85 16 -20 8
-42 13 -48 10 -9 -3 -9 -5 0 -5 6 -1 24 -6 40 -13 l28 -11 -30 -8 c-24 -7 -22
-7 13 -3 46 5 92 -3 92 -16 0 -5 -23 -20 -51 -34 l-52 -25 -25 32 c-16 21 -43
38 -71 47 -29 9 -45 20 -43 29 6 27 -28 59 -80 78 -46 16 -82 18 -273 16 -373
-3 -480 -26 -480 -103 0 -18 6 -35 13 -38 7 -2 12 6 12 22 0 48 64 88 106 66
35 -19 48 -69 34 -135 l-11 -55 -60 -17 c-59 -18 -77 -35 -42 -41 14 -2 15 -1
4 6 -9 7 2 13 40 22 30 6 63 14 74 16 17 4 15 1 -8 -20 -15 -14 -40 -26 -55
-27 -15 0 -21 -3 -14 -6 10 -4 10 -9 -2 -27 -19 -30 -23 -70 -9 -88 10 -12 10
-31 -2 -93 -9 -43 -17 -80 -18 -82 -2 -2 -29 11 -61 28 -56 30 -56 31 -51 67
l6 37 -15 -33 -15 -33 -51 26 c-27 14 -50 29 -50 33 0 4 21 28 46 52 25 25 56
66 69 91 13 26 31 49 39 52 39 15 74 117 41 117 -8 0 -15 -7 -15 -15 0 -22
-82 -20 -243 6 -112 17 -141 19 -192 9 -101 -20 -153 -60 -164 -126 l-6 -37
-100 -28 c-58 -16 -104 -35 -112 -45 -23 -31 -15 -68 19 -101 32 -30 264 -209
341 -262 35 -25 37 -28 32 -68 -7 -51 12 -121 37 -134 16 -9 9 -20 -62 -100
-44 -50 -80 -97 -80 -105 0 -11 -16 -14 -68 -14 -61 0 -74 -4 -112 -31 l-42
-31 -22 21 c-28 27 -77 41 -138 41 -38 0 -48 -3 -48 -16 0 -16 83 -315 100
-359 7 -17 20 -24 57 -29 26 -4 97 -23 157 -42 123 -40 159 -41 164 -6 4 24
-30 97 -79 170 -16 24 -29 44 -29 46 0 2 21 6 46 9 28 3 61 16 87 34 29 21 59
32 97 36 38 5 92 25 178 68 117 58 125 60 141 44 15 -16 14 -17 -11 -13 -15 3
-25 1 -22 -3 3 -5 12 -9 20 -9 18 0 18 -29 -2 -110 -21 -82 -23 -231 -5 -338
11 -69 16 -82 32 -82 23 0 23 -10 3 142 -18 139 -15 191 21 349 17 73 23 122
19 146 -6 32 -5 35 14 28 16 -4 34 3 68 29 26 20 59 36 73 37 21 0 23 2 8 8
-17 6 -17 8 -4 19 12 10 18 10 28 -1 8 -7 30 -19 49 -27 19 -7 53 -29 75 -47
48 -41 119 -63 201 -63 35 0 65 -4 69 -9 3 -6 30 -24 59 -41 49 -27 55 -35 61
-73 4 -23 22 -101 41 -174 19 -75 36 -173 40 -228 7 -91 8 -95 30 -95 22 0 24
4 24 43 0 23 -7 87 -15 142 -26 171 -28 193 -21 211 6 14 14 6 41 -41 41 -71
41 -72 14 -80 -11 -4 -18 -9 -16 -12 3 -2 14 0 25 6 18 9 25 5 56 -38 20 -27
36 -51 36 -55 0 -3 -25 -22 -55 -42 -30 -20 -55 -39 -55 -41 0 -7 58 27 89 53
l31 26 44 -40 c52 -48 86 -67 149 -83 26 -6 47 -17 47 -25 0 -7 4 -15 9 -18 5
-4 7 3 4 14 -4 15 0 20 15 20 14 0 22 -8 24 -22 l3 -23 250 2 250 2 75 79
c247 259 415 608 472 982 17 115 19 163 14 325 -7 208 -12 255 -30 255 -7 0
-30 -13 -52 -29 -129 -93 -261 -61 -428 105 -133 132 -229 322 -300 594 -60
230 -87 377 -93 512 -3 75 -11 132 -17 137 -6 5 -58 34 -116 64 -160 85 -330
143 -530 182 -100 20 -457 29 -563 14z m-364 -325 c3 -4 1 -16 -5 -27 -10 -20
-11 -20 -24 -2 -7 10 -11 22 -8 26 6 10 28 12 37 3z m816 -123 c80 -12 91 -29
91 -151 0 -187 -44 -531 -86 -674 -18 -64 -48 -96 -89 -96 -51 0 -505 68 -570
85 -33 9 -71 23 -84 32 l-24 15 7 142 c9 168 29 339 55 467 25 123 35 145 63
152 108 28 516 45 637 28z m315 -284 l40 -49 -13 -75 c-19 -113 -117 -452
-139 -482 -22 -29 -79 -41 -93 -19 -7 10 -9 10 -9 1 0 -9 -18 -13 -56 -13 -44
0 -54 3 -46 13 43 53 107 419 119 676 l6 154 76 -79 c42 -43 94 -101 115 -127z
m-1624 -28 c0 -24 -23 -21 -28 4 -2 10 3 17 12 17 10 0 16 -9 16 -21z m200
-163 c0 -21 -21 -31 -30 -15 -5 7 -6 17 -4 21 9 14 34 9 34 -6z m1520 -81 c23
-41 38 -79 35 -85 -3 -5 -1 -10 4 -10 22 0 11 -84 -20 -151 -32 -68 -32 -68
-95 -89 -35 -11 -72 -20 -83 -20 -19 0 -19 1 -1 48 11 26 38 115 60 197 23 83
44 158 46 168 3 9 7 17 9 17 2 0 22 -34 45 -75z m-1730 -55 c0 -5 -4 -10 -10
-10 -5 0 -10 5 -10 10 0 6 5 10 10 10 6 0 10 -4 10 -10z m160 -140 c0 -5 -4
-10 -10 -10 -5 0 -10 5 -10 10 0 6 5 10 10 10 6 0 10 -4 10 -10z m1686 -45 c9
-23 -33 -74 -56 -68 -24 6 -25 22 -3 67 14 30 19 33 35 25 11 -6 22 -17 24
-24z m-1938 -17 c-6 -18 -28 -21 -28 -4 0 9 7 16 16 16 9 0 14 -5 12 -12z
m150 -59 c-2 -6 -8 -10 -13 -10 -5 0 -11 4 -13 10 -2 6 4 11 13 11 9 0 15 -5
13 -11z m187 -27 c-3 -4 -10 0 -15 8 -6 9 -5 17 3 22 13 8 24 -19 12 -30z
m-135 -78 c0 -33 -33 -30 -38 4 -3 17 2 22 17 22 16 0 21 -6 21 -26z m1277
-59 c58 -25 67 -35 47 -56 -10 -11 -21 -19 -27 -19 -16 0 -78 -32 -72 -38 2
-3 -1 -12 -8 -20 -10 -13 -9 -14 9 -4 11 6 26 18 33 26 7 8 32 18 56 21 52 8
115 -17 161 -64 49 -51 229 -405 255 -501 10 -39 9 -60 -11 -153 -19 -91 -27
-112 -54 -138 -30 -30 -33 -31 -100 -25 -94 7 -148 36 -335 176 -86 64 -191
140 -233 169 -75 49 -98 74 -60 65 9 -3 39 5 65 16 52 23 91 72 81 102 -8 26
5 22 58 -14 25 -18 72 -52 105 -75 79 -55 229 -122 289 -128 l49 -5 -52 15
c-29 8 -71 24 -93 35 -37 19 -40 24 -40 63 -1 23 -7 56 -15 72 l-15 30 6 -35
c6 -31 5 -33 -10 -21 -21 18 -20 9 3 -33 11 -19 17 -36 14 -39 -3 -3 -65 35
-137 84 -96 64 -141 89 -164 89 -21 0 -32 6 -36 18 -4 10 -50 61 -103 113 -82
81 -98 101 -109 144 -11 39 -11 52 -1 61 6 7 64 28 127 47 132 41 252 49 317
22z m-1517 -71 c0 -9 -5 -14 -12 -12 -18 6 -21 28 -4 28 9 0 16 -7 16 -16z
m2440 -60 c0 -9 -5 -14 -12 -12 -18 6 -21 28 -4 28 9 0 16 -7 16 -16z m-1403
-67 c4 -7 26 -20 48 -28 47 -18 169 -152 178 -197 3 -16 12 -36 20 -44 21 -20
6 -41 -44 -64 -32 -14 -43 -16 -47 -6 -5 17 -56 42 -86 42 -14 0 -54 20 -89
44 -35 24 -85 53 -111 65 -26 11 -45 25 -41 31 10 16 72 12 79 -5 3 -8 16 -15
30 -15 14 0 28 -4 31 -10 10 -15 28 -12 22 4 -6 15 12 26 41 26 10 0 23 -13
30 -30 8 -16 18 -30 23 -30 5 0 -2 17 -15 38 -15 24 -30 36 -42 35 -11 -2 -39
-5 -64 -9 l-45 -6 35 31 35 31 -42 -20 c-23 -11 -54 -20 -69 -20 l-27 0 24 27
c16 19 18 23 4 12 -52 -41 -44 -25 20 40 70 72 87 82 102 58z m-482 -18 c77
-12 142 -23 144 -25 8 -8 -24 -60 -65 -104 -22 -25 -43 -52 -46 -60 -4 -13
-70 15 -155 67 -31 19 -32 20 -15 38 17 19 16 19 -5 1 -20 -17 -23 -17 -48 0
l-26 17 23 26 23 26 -26 -23 c-20 -17 -33 -21 -57 -16 -41 8 -43 38 -4 58 37
21 93 20 257 -5z m-227 -92 c68 -43 156 -94 272 -157 63 -35 162 -90 220 -123
58 -33 134 -76 170 -95 36 -19 69 -38 73 -42 4 -4 -9 -20 -30 -36 -21 -16 -79
-66 -130 -111 l-91 -83 -94 67 c-51 37 -221 160 -378 273 -157 113 -297 213
-312 223 -16 10 -28 21 -28 25 0 4 30 16 68 25 37 9 99 26 137 36 88 25 79 25
123 -2z m-290 -104 c20 -16 41 -32 47 -36 5 -5 89 -65 186 -135 97 -70 187
-135 200 -145 48 -35 206 -149 271 -194 57 -41 68 -54 77 -90 6 -23 11 -45 11
-49 0 -4 -26 17 -58 47 -53 50 -183 153 -237 189 -12 8 -35 24 -49 35 -15 11
-60 45 -100 75 -40 30 -88 66 -106 80 -18 14 -39 31 -46 38 -7 6 -15 12 -18
12 -4 0 -39 26 -79 58 -41 32 -90 69 -110 81 -22 13 -37 31 -37 42 0 25 4 24
48 -8z m2792 -18 c0 -8 -7 -15 -15 -15 -8 0 -15 7 -15 15 0 8 7 15 15 15 8 0
15 -7 15 -15z m-1732 -90 c41 -11 47 -15 44 -36 -4 -32 9 -46 98 -111 41 -30
116 -84 165 -120 166 -120 274 -188 329 -205 34 -11 56 -24 57 -33 0 -10 2
-11 6 -2 2 6 15 12 28 12 17 0 27 -10 39 -41 19 -47 14 -73 -22 -111 -35 -38
-58 -36 -71 5 -17 52 -93 130 -163 168 l-63 34 -170 1 c-185 2 -212 8 -262 57
l-33 31 24 25 c22 24 24 30 15 75 -11 60 -20 71 -81 102 -36 18 -48 29 -44 42
3 9 8 35 11 57 13 84 14 88 31 74 8 -7 36 -18 62 -24z m1526 -143 c2 -4 1 -14
-4 -22 -7 -11 -12 -12 -21 -3 -6 6 -8 16 -5 22 8 13 23 14 30 3z m-1534 -106
c0 -13 2 -31 5 -38 4 -9 -34 -48 -105 -107 -61 -52 -119 -104 -129 -117 l-19
-25 -11 48 c-5 27 -7 51 -3 54 77 69 246 209 253 209 5 0 9 -11 9 -24z m1840
4 c0 -5 -4 -10 -10 -10 -5 0 -10 5 -10 10 0 6 5 10 10 10 6 0 10 -4 10 -10z
m-2449 -61 c16 -8 18 -13 8 -25 -17 -20 -26 -17 -31 11 -6 28 -4 29 23 14z
m2069 -13 c0 -21 -21 -31 -30 -15 -5 7 -6 17 -4 21 9 14 34 9 34 -6z m-1988
-48 c29 -20 30 -22 11 -29 -24 -9 -37 -68 -23 -104 7 -19 19 -25 64 -30 30 -4
61 -5 68 -2 7 3 -2 6 -19 6 -19 1 -33 6 -34 14 0 8 -2 8 -5 1 -7 -16 -53 -5
-64 16 -5 9 -7 34 -3 54 10 61 51 48 170 -58 26 -23 33 -37 33 -66 0 -33 -4
-39 -32 -50 -18 -7 -86 -37 -150 -67 -65 -29 -131 -56 -148 -59 -29 -6 -30 -5
-24 23 7 35 -16 87 -45 103 -11 5 -32 10 -48 10 -26 0 -19 9 84 109 61 60 114
119 118 130 8 26 10 26 47 -1z m537 -22 l23 -24 -23 -31 c-12 -17 -24 -31 -26
-31 -5 0 -66 31 -72 36 -5 5 60 74 69 74 4 0 17 -11 29 -24z m114 -63 c25 -4
37 -11 37 -22 0 -11 3 -12 8 -4 5 7 29 11 65 10 31 -1 57 1 57 6 0 4 7 7 15 7
8 0 15 -5 15 -12 0 -9 3 -9 12 0 24 24 41 14 35 -20 l-5 -33 11 28 c11 27 14
28 51 23 57 -10 59 -13 30 -54 l-26 -37 28 33 c50 56 81 35 38 -25 l-26 -38
32 38 33 38 43 -42 c24 -24 44 -47 44 -51 0 -4 -18 -17 -40 -28 -22 -11 -40
-23 -40 -26 0 -3 20 5 43 19 l44 24 21 -22 c12 -13 22 -28 22 -34 0 -10 -90
-61 -107 -61 -5 0 -17 16 -28 36 -20 38 -68 80 -125 109 -27 14 -62 19 -152
21 -92 2 -125 6 -160 22 -73 34 -75 37 -53 64 l20 23 -22 -18 c-12 -11 -27
-16 -34 -11 -17 10 41 56 61 48 8 -3 32 -8 53 -11z m1343 -54 c3 -6 1 -16 -5
-22 -9 -9 -14 -8 -21 3 -9 15 -4 30 10 30 5 0 12 -5 16 -11z m146 -109 c-3
-33 -10 -37 -29 -18 -19 20 -10 51 14 46 12 -3 17 -12 15 -28z m-1226 1 c49
-22 64 -41 34 -41 -19 0 -110 46 -110 56 0 10 38 2 76 -15z m-1474 -48 l27
-26 -29 -41 c-29 -39 -40 -74 -20 -61 6 3 10 1 10 -4 0 -6 8 -11 18 -11 10 0
24 -6 31 -12 11 -11 13 -10 7 0 -8 14 39 36 56 26 7 -5 8 -2 3 7 -8 12 -6 12
8 0 13 -11 15 -17 6 -28 -15 -17 -8 -24 32 -32 27 -5 40 -20 91 -105 33 -54
57 -101 53 -104 -3 -3 -63 13 -133 36 -70 23 -147 43 -172 44 l-45 3 -32 100
c-59 183 -72 229 -66 238 3 5 33 6 67 2 46 -5 68 -13 88 -32z m352 15 c45 -42
42 -60 -20 -122 -56 -55 -57 -56 -115 -56 -33 0 -59 2 -59 5 0 3 18 12 40 21
45 18 49 28 20 44 -34 18 -83 13 -144 -15 -48 -22 -60 -25 -67 -14 -14 22 -12
25 44 84 l52 56 98 3 c54 2 100 6 104 10 11 10 21 7 47 -16z m1256 -88 c0 -8
-35 -20 -57 -20 -7 0 -17 19 -23 41 -17 61 5 71 48 22 17 -20 32 -40 32 -43z
m200 -89 c0 -4 -11 -18 -24 -30 l-24 -22 -26 47 c-14 25 -26 49 -26 53 0 3 12
13 28 22 27 15 27 15 50 -24 12 -21 22 -42 22 -46z m-1645 49 c-3 -5 -13 -10
-21 -10 -8 0 -14 5 -14 10 0 6 9 10 21 10 11 0 17 -4 14 -10z m2065 -64 c0
-15 -55 -66 -70 -66 -5 0 -29 -16 -54 -35 -49 -37 -59 -34 -25 9 20 25 126
104 142 105 4 1 7 -5 7 -13z m-400 -39 c0 -39 -10 -77 -20 -77 -4 0 -15 16
-26 35 -18 34 -18 34 5 59 29 31 41 25 41 -17z m389 -54 c-13 -41 -80 -118
-120 -139 -34 -17 -39 -17 -39 -1 0 7 16 19 35 25 44 17 81 60 90 108 6 36 36
73 43 53 2 -5 -2 -25 -9 -46z"/>
<path d="M1765 3144 c-22 -2 -82 -6 -133 -10 -64 -4 -98 -11 -113 -23 -27 -22
-53 -151 -69 -339 -13 -162 -9 -200 23 -207 107 -25 285 -56 374 -65 59 -6
122 -13 140 -16 58 -11 88 38 114 180 14 79 22 448 10 466 -8 12 -39 15 -158
16 -81 1 -166 0 -188 -2z"/>
<path d="M1465 2491 c-6 -11 9 -23 19 -14 9 9 7 23 -3 23 -6 0 -12 -4 -16 -9z"/>
<path d="M1890 2416 c0 -8 5 -18 10 -21 6 -3 10 3 10 14 0 12 -4 21 -10 21 -5
0 -10 -6 -10 -14z"/>
<path d="M1985 2411 c-7 -12 12 -24 25 -16 11 7 4 25 -10 25 -5 0 -11 -4 -15
-9z"/>
<path d="M2381 2944 c0 -11 3 -14 6 -6 3 7 2 16 -1 19 -3 4 -6 -2 -5 -13z"/>
<path d="M2371 2904 c0 -11 3 -14 6 -6 3 7 2 16 -1 19 -3 4 -6 -2 -5 -13z"/>
<path d="M2331 2674 c0 -11 3 -14 6 -6 3 7 2 16 -1 19 -3 4 -6 -2 -5 -13z"/>
<path d="M2311 2584 c0 -11 3 -14 6 -6 3 7 2 16 -1 19 -3 4 -6 -2 -5 -13z"/>
<path d="M2530 2651 c0 -11 39 -41 53 -41 13 0 -12 29 -35 41 -12 6 -18 6 -18
0z"/>
<path d="M2535 2605 c38 -24 55 -30 55 -21 0 8 -67 46 -81 46 -8 0 4 -12 26
-25z"/>
<path d="M2514 2575 c11 -8 29 -15 40 -15 19 1 19 2 -4 15 -35 20 -62 19 -36
0z"/>
<path d="M2515 2536 c22 -7 42 -12 44 -10 9 8 -8 15 -45 19 l-39 5 40 -14z"/>
<path d="M2476 2522 c-13 -13 -4 -20 29 -24 19 -2 35 -1 35 2 0 9 -58 29 -64
22z"/>
<path d="M2474 2476 c11 -9 29 -16 40 -16 17 1 18 2 6 9 -8 5 -26 12 -40 15
-24 7 -24 6 -6 -8z"/>
<path d="M2450 2451 c0 -12 26 -21 58 -20 l27 1 -30 13 c-35 16 -55 19 -55 6z"/>
<path d="M2440 2412 c23 -14 97 -26 85 -13 -5 5 -30 13 -55 16 -30 4 -40 3
-30 -3z"/>
<path d="M2435 2379 c-15 -6 -9 -8 23 -8 23 -1 42 3 42 8 0 11 -38 11 -65 0z"/>
<path d="M1882 2108 c-13 -13 -16 -38 -4 -38 4 0 12 11 19 25 12 27 5 33 -15
13z"/>
<path d="M1960 2107 c0 -3 12 -12 26 -22 15 -9 23 -12 20 -6 -7 11 -46 35 -46
28z"/>
<path d="M1913 2083 c9 -2 23 -2 30 0 6 3 -1 5 -18 5 -16 0 -22 -2 -12 -5z"/>
<path d="M1922 1984 c-16 -11 -11 -44 7 -44 5 0 19 13 29 28 20 28 20 28 0 28
-11 0 -27 -5 -36 -12z"/>
<path d="M2499 1283 c-13 -16 -12 -17 4 -4 9 7 17 15 17 17 0 8 -8 3 -21 -13z"/>
<path d="M1686 1970 c-47 -36 -57 -46 -31 -32 23 13 83 61 75 61 -3 0 -22 -13
-44 -29z"/>
<path d="M1133 1993 c9 -2 25 -2 35 0 9 3 1 5 -18 5 -19 0 -27 -2 -17 -5z"/>
<path d="M1220 1968 c0 -5 8 -8 18 -8 10 0 24 -6 31 -12 10 -9 12 -10 7 -1 -5
9 10 13 51 15 54 3 52 4 -25 8 -45 3 -82 2 -82 -2z"/>
<path d="M1170 1950 c-18 -12 -2 -12 25 0 13 6 15 9 5 9 -8 0 -22 -4 -30 -9z"/>
<path d="M845 1843 c-16 -8 -32 -17 -34 -19 -9 -8 31 -41 211 -171 104 -76
216 -157 249 -181 l60 -44 105 64 c58 35 105 68 105 73 0 6 -10 16 -23 24 -22
12 -22 12 -4 -3 11 -9 18 -17 15 -19 -29 -23 -81 -47 -90 -41 -7 4 -9 3 -6 -4
4 -6 -17 -24 -48 -41 l-56 -32 -155 113 c-86 62 -201 145 -256 185 l-100 72
39 20 c21 11 34 20 28 20 -5 0 -23 -7 -40 -16z"/>
<path d="M1150 1806 c0 -3 9 -10 20 -16 11 -6 20 -8 20 -6 0 3 -9 10 -20 16
-11 6 -20 8 -20 6z"/>
<path d="M1374 1671 c7 -11 46 -35 46 -28 0 3 -12 12 -26 22 -15 9 -23 12 -20
6z"/>
<path d="M1437 1629 c7 -7 15 -10 18 -7 3 3 -2 9 -12 12 -14 6 -15 5 -6 -5z"/>
<path d="M1534 1464 c-93 -66 -107 -79 -79 -71 23 7 60 -17 50 -32 -8 -15 -35
-14 -55 2 -9 6 -3 0 14 -15 29 -27 31 -27 55 -11 58 37 181 139 181 150 0 6
-14 16 -31 22 -27 9 -30 9 -19 -4 18 -21 -6 -48 -35 -41 -19 5 -21 2 -18 -18
5 -27 -26 -42 -48 -22 -11 9 -11 8 -1 -5 19 -25 -10 -46 -43 -31 -14 7 -25 15
-25 20 0 5 21 23 48 40 57 38 99 71 91 72 -4 0 -42 -25 -85 -56z"/>
<path d="M1430 1450 c0 -5 5 -10 11 -10 5 0 7 5 4 10 -3 6 -8 10 -11 10 -2 0
-4 -4 -4 -10z"/>
<path d="M1400 1420 c0 -5 5 -10 11 -10 5 0 7 5 4 10 -3 6 -8 10 -11 10 -2 0
-4 -4 -4 -10z"/>
<path d="M2502 1140 c0 -14 2 -19 5 -12 2 6 2 18 0 25 -3 6 -5 1 -5 -13z"/>
<path d="M2479 1093 c-13 -16 -12 -17 4 -4 16 13 21 21 13 21 -2 0 -10 -8 -17
-17z"/>
<path d="M1352 1210 c0 -19 2 -27 5 -17 2 9 2 25 0 35 -3 9 -5 1 -5 -18z"/>
<path d="M1760 1290 c0 -5 5 -10 11 -10 5 0 7 5 4 10 -3 6 -8 10 -11 10 -2 0
-4 -4 -4 -10z"/>
<path d="M1740 1260 c20 -13 33 -13 25 0 -3 6 -14 10 -23 10 -15 0 -15 -2 -2
-10z"/>
<path d="M2062 1190 c0 -14 2 -19 5 -12 2 6 2 18 0 25 -3 6 -5 1 -5 -13z"/>
<path d="M2201 1183 c-10 -26 -10 -27 4 -9 8 11 15 23 15 28 0 15 -7 8 -19
-19z"/>
<path d="M1930 1179 c-7 -11 -10 -23 -7 -25 2 -2 9 7 15 21 14 30 7 33 -8 4z"/>
<path d="M2314 1115 c-10 -8 -14 -15 -8 -15 6 0 17 7 24 15 16 19 9 19 -16 0z"/>
<path d="M2339 1083 l-34 -38 38 34 c34 33 42 41 34 41 -2 0 -19 -17 -38 -37z"/>
<path d="M2375 1024 l-30 -26 35 23 c45 29 45 29 34 29 -5 0 -22 -12 -39 -26z"/>
<path d="M595 1043 c11 -3 23 -10 27 -17 5 -7 8 -5 8 7 0 12 -7 17 -27 16 -22
-1 -23 -2 -8 -6z"/>
<path d="M658 1033 c7 -3 16 -2 19 1 4 3 -2 6 -13 5 -11 0 -14 -3 -6 -6z"/>
<path d="M696 1017 c3 -10 9 -15 12 -12 3 3 0 11 -7 18 -10 9 -11 8 -5 -6z"/>
<path d="M605 955 c23 -67 29 -81 37 -90 11 -12 -17 69 -32 93 -10 15 -11 15
-5 -3z"/>
<path d="M685 841 c62 -13 191 -24 182 -15 -4 4 -17 8 -30 9 -174 13 -189 14
-152 6z"/>
<path d="M654 776 c11 -9 31 -16 45 -16 14 0 61 -7 104 -15 86 -16 114 -19
104 -8 -6 6 -38 12 -74 15 -7 1 -13 4 -13 7 0 3 -15 7 -32 7 -43 2 -129 14
-143 20 -5 3 -1 -2 9 -10z"/>
<path d="M747 959 c-32 -32 -35 -36 -12 -21 33 22 72 62 61 62 -4 0 -26 -18
-49 -41z"/>
<path d="M2958 3347 c16 -279 93 -606 192 -822 85 -184 247 -374 354 -414 101
-37 175 -21 249 56 44 46 45 35 -19 233 l-33 105 -113 0 c-112 0 -114 0 -186
39 -183 98 -311 336 -352 656 -17 135 -9 138 14 5 40 -226 81 -348 155 -462
46 -70 132 -153 189 -182 96 -49 254 -64 268 -26 8 19 -78 184 -161 310 -137
208 -303 382 -491 514 l-70 50 4 -62z"/>
<path d="M459 2973 c-140 -190 -173 -259 -190 -400 -20 -170 5 -267 129 -502
l60 -113 27 46 c73 124 73 261 0 486 -58 180 -55 318 11 479 18 47 32 86 31
88 -2 2 -33 -36 -68 -84z"/>
<path d="M183 2458 c-70 -199 -113 -430 -113 -605 0 -77 1 -82 23 -86 22 -4
22 -4 -2 -6 l-24 -1 8 -117 c3 -65 11 -123 17 -130 15 -19 111 -36 172 -31
146 12 234 163 197 338 -18 86 -22 89 -71 47 -51 -43 -155 -87 -224 -93 -50
-5 -49 -4 20 15 86 23 161 60 208 102 41 36 44 27 -47 172 -31 48 -65 116 -76
150 -22 69 -50 216 -53 290 l-3 48 -32 -93z"/>
<path d="M2585 2334 c-12 -18 -129 -50 -220 -60 -33 -4 -64 -9 -68 -11 -16 -9
46 -63 72 -63 13 0 58 -9 98 -21 l73 -20 29 20 c47 34 77 131 49 159 -16 16
-21 15 -33 -4z"/>
<path d="M2378 2183 c7 -3 16 -2 19 1 4 3 -2 6 -13 5 -11 0 -14 -3 -6 -6z"/>
<path d="M1600 2134 c0 -8 5 -12 10 -9 6 3 10 10 10 16 0 5 -4 9 -10 9 -5 0
-10 -7 -10 -16z"/>
<path d="M1415 2130 c-11 -17 5 -30 36 -30 33 0 36 7 12 26 -22 16 -40 18 -48
4z"/>
<path d="M1030 1390 c6 -11 13 -20 16 -20 2 0 0 9 -6 20 -6 11 -13 20 -16 20
-2 0 0 -9 6 -20z"/>
<path d="M3000 1040 c0 -5 6 -7 14 -4 9 4 16 -3 19 -18 4 -21 4 -20 6 5 1 21
-4 27 -19 27 -11 0 -20 -4 -20 -10z"/>
<path d="M1398 978 c6 -6 18 -8 28 -6 14 3 12 5 -9 10 -19 3 -25 2 -19 -4z"/>
<path d="M1684 688 c11 -27 26 -131 29 -195 1 -24 27 -13 27 11 0 37 -28 173
-40 196 -17 33 -30 23 -16 -12z"/>
<path d="M2422 587 c-40 -30 -43 -34 -37 -67 4 -19 8 -36 9 -38 2 -1 72 -1
157 0 98 2 147 6 134 12 -101 43 -146 68 -177 95 -20 17 -37 31 -39 30 -2 0
-23 -15 -47 -32z"/>
<path d="M2242 590 c0 -14 2 -19 5 -12 2 6 2 18 0 25 -3 6 -5 1 -5 -13z"/>
<path d="M2252 515 c0 -16 2 -22 5 -12 2 9 2 23 0 30 -3 6 -5 -1 -5 -18z"/>
<path d="M1131 354 c-25 -21 -31 -33 -31 -65 0 -58 36 -91 92 -87 23 2 43 9
46 16 3 10 -4 12 -31 7 -30 -6 -40 -3 -62 19 -31 31 -28 69 7 99 23 20 41 21
69 7 15 -8 19 -7 19 4 0 34 -68 35 -109 0z"/>
<path d="M1357 373 c-4 -3 -7 -44 -7 -90 0 -67 3 -83 15 -83 11 0 15 11 15 40
l0 40 40 0 40 0 0 -40 c0 -22 5 -40 10 -40 6 0 10 37 10 90 0 53 -4 90 -10 90
-5 0 -10 -16 -10 -35 0 -34 -1 -35 -40 -35 -39 0 -40 1 -40 35 0 33 -8 43 -23
28z"/>
<path d="M1610 290 c0 -53 4 -90 10 -90 6 0 10 37 10 90 0 53 -4 90 -10 90 -6
0 -10 -37 -10 -90z"/>
<path d="M1750 291 l0 -91 40 0 c22 0 40 5 40 10 0 6 -11 10 -25 10 -23 0 -24
3 -27 77 -2 50 -7 78 -15 81 -10 3 -13 -19 -13 -87z"/>
<path d="M1930 290 l0 -90 40 0 c22 0 40 5 40 10 0 6 -11 10 -25 10 -25 0 -25
1 -25 80 0 64 -3 80 -15 80 -12 0 -15 -17 -15 -90z"/>
<path d="M2110 291 l0 -91 35 0 c46 0 80 17 94 47 30 65 -6 122 -82 130 l-47
6 0 -92z m98 47 c16 -16 15 -83 -1 -96 -6 -6 -24 -13 -40 -17 l-27 -7 0 66 c0
66 0 66 28 66 15 0 33 -5 40 -12z"/>
<path d="M2360 290 l0 -90 50 0 c28 0 50 5 50 10 0 6 -16 10 -35 10 -33 0 -35
2 -35 35 0 33 2 35 35 35 19 0 35 5 35 10 0 6 -16 10 -35 10 -28 0 -35 4 -35
19 0 15 8 21 32 23 55 5 46 28 -11 28 l-51 0 0 -90z"/>
<path d="M2560 373 c0 -5 12 -38 26 -74 15 -35 31 -75 36 -89 9 -23 13 -17 49
70 21 52 39 96 39 98 0 1 -7 2 -14 2 -9 0 -24 -25 -37 -60 -12 -34 -26 -57
-30 -53 -4 4 -16 30 -26 57 -16 43 -43 74 -43 49z"/>
</g>
</svg>
